<svg viewBox="137.05882352941177 284.11764705882354 1343.529411764706 1020.0000000000001" xmlns="http://www.w3.org/2000/svg">
<style>
.line {
    fill: black;
    stroke: black;
    stroke-width: 1;
    stroke-linecap: round;
}

.pt {
    fill: black;
    stroke: black;
    stroke-width: 4;
    stroke-linecap: round;
}

.circ {
    fill: none;
    stroke: black;
    stroke-width: 1;
}

</style>
<line class="line" x1="772.0588235294118" x2="772.0588235294118" y1="358.6411764705883" y2="1166.0117647058826"/>
<line class="line" x1="992.6470588235295" x2="992.6470588235295" y1="295.6529411764706" y2="1174.9352941176471"/>
<line class="line" x1="1463.235294117647" x2="1463.235294117647" y1="655.0823529411765" y2="815.5058823529412"/>
<line class="line" x1="1080.8823529411766" x2="1080.8823529411766" y1="297.1294117647059" y2="1173.4588235294118"/>
<line class="line" x1="786.764705882353" x2="786.764705882353" y1="366.8382352941177" y2="1146.9264705882354"/>
<line class="line" x1="1125" x2="1125" y1="304.59705882352944" y2="1165.9911764705882"/>
<line class="line" x1="183.82352941176472" x2="183.82352941176472" y1="784.3323529411765" y2="1098.020588235294"/>
<line class="line" x1="301.47058823529414" x2="301.47058823529414" y1="522.8823529411765" y2="1232.9882352941177"/>
<line class="line" x1="580.8823529411765" x2="580.8823529411765" y1="294.2088235294118" y2="1284.7235294117647"/>
<line class="line" x1="213.23529411764707" x2="213.23529411764707" y1="735.4264705882354" y2="1146.9264705882354"/>
<line class="line" x1="1110.294117647059" x2="1110.294117647059" y1="301.59411764705885" y2="1168.994117647059"/>
<line class="line" x1="1272.058823529412" x2="1272.058823529412" y1="366.8382352941177" y2="1103.75"/>
<line class="line" x1="625" x2="625" y1="296.4235294117647" y2="1271.2411764705882"/>
<line class="line" x1="433.82352941176475" x2="433.82352941176475" y1="337.9117647058824" y2="1287.858823529412"/>
<line class="line" x1="595.5882352941177" x2="595.5882352941177" y1="294.2088235294118" y2="1280.9264705882354"/>
<line class="line" x1="345.5882352941177" x2="345.5882352941177" y1="422.02058823529416" y2="1258.5470588235296"/>
<line class="line" x1="713.2352941176471" x2="713.2352941176471" y1="322.0029411764706" y2="1222.4205882352942"/>
<line class="line" x1="272.05882352941177" x2="272.05882352941177" y1="671.714705882353" y2="1210.6382352941177"/>
<line class="line" x1="389.7058823529412" x2="389.7058823529412" y1="371.2294117647059" y2="1276.4411764705883"/>
<line class="line" x1="551.4705882352941" x2="551.4705882352941" y1="296.4235294117647" y2="1290.344117647059"/>
<line class="line" x1="316.1764705882353" x2="316.1764705882353" y1="476.4794117647059" y2="1242.4676470588238"/>
<line class="line" x1="1066.1764705882354" x2="1066.1764705882354" y1="295.6529411764706" y2="1174.9352941176471"/>
<line class="line" x1="1301.4705882352941" x2="1301.4705882352941" y1="387.98823529411766" y2="1082.6000000000001"/>
<line class="line" x1="1022.0588235294118" x2="1022.0588235294118" y1="294.1794117647059" y2="1176.4088235294118"/>
<circle class="circ" cx="500.00000000000006" cy="941.1764705882354" r="352.9411764705883"/>
<line class="line" x1="742.6470588235295" x2="742.6470588235295" y1="337.9117647058824" y2="1197.4764705882353"/>
<line class="line" x1="669.1176470588235" x2="669.1176470588235" y1="305.45882352941175" y2="1250.9617647058824"/>
<line class="line" x1="933.8235294117648" x2="933.8235294117648" y1="304.59705882352944" y2="1165.9911764705882"/>
<line class="line" x1="1139.7058823529412" x2="1139.7058823529412" y1="308.12647058823535" y2="1162.4617647058826"/>
<line class="line" x1="1183.8235294117649" x2="1183.8235294117649" y1="322.02352941176474" y2="1148.564705882353"/>
<line class="line" x1="1095.5882352941178" x2="1095.5882352941178" y1="299.1088235294118" y2="1171.479411764706"/>
<line class="line" x1="1198.5294117647059" x2="1198.5294117647059" y1="327.8176470588235" y2="1142.770588235294"/>
<line class="line" x1="683.8235294117648" x2="683.8235294117648" y1="310.0852941176471" y2="1242.4676470588238"/>
<line class="line" x1="404.4117647058824" x2="404.4117647058824" y1="358.6411764705883" y2="1280.9264705882354"/>
<line class="line" x1="477.9411764705883" x2="477.9411764705883" y1="315.5823529411765" y2="1293.4264705882354"/>
<line class="line" x1="1433.8235294117649" x2="1433.8235294117649" y1="558.9764705882353" y2="911.6117647058824"/>
<line class="line" x1="330.8823529411765" x2="330.8823529411765" y1="445.84705882352944" y2="1250.9617647058824"/>
<line class="line" x1="566.1764705882354" x2="566.1764705882354" y1="294.9470588235294" y2="1287.858823529412"/>
<line class="line" x1="698.529411764706" x2="698.529411764706" y1="315.5823529411765" y2="1232.9882352941177"/>
<line class="line" x1="830.8823529411766" x2="830.8823529411766" y1="341.3117647058824" y2="1129.2764705882355"/>
<line class="line" x1="1169.1176470588236" x2="1169.1176470588236" y1="316.8205882352941" y2="1153.7676470588237"/>
<circle class="circ" cx="588.2352941176471" cy="588.2352941176471" r="294.11764705882354"/>
<line class="line" x1="1389.7058823529412" x2="1389.7058823529412" y1="480.68823529411765" y2="989.9"/>
<line class="line" x1="610.2941176470589" x2="610.2941176470589" y1="294.9470588235294" y2="1276.4411764705883"/>
<line class="line" x1="522.0588235294118" x2="522.0588235294118" y1="301.6588235294118" y2="1293.4264705882354"/>
<line class="line" x1="845.5882352941177" x2="845.5882352941177" y1="334.2382352941177" y2="1136.3500000000001"/>
<line class="line" x1="639.7058823529412" x2="639.7058823529412" y1="298.6558823529412" y2="1265.2911764705884"/>
<line class="line" x1="1330.8823529411766" x2="1330.8823529411766" y1="413.1882352941177" y2="1057.4"/>
<line class="line" x1="1242.6470588235295" x2="1242.6470588235295" y1="349.07352941176475" y2="1121.514705882353"/>
<line class="line" x1="463.2352941176471" x2="463.2352941176471" y1="322.0029411764706" y2="1292.1970588235295"/>
<line class="line" x1="419.11764705882354" x2="419.11764705882354" y1="347.6029411764706" y2="1284.7235294117647"/>
<line class="line" x1="875.0000000000001" x2="875.0000000000001" y1="322.02352941176474" y2="1148.564705882353"/>
<line class="line" x1="727.9411764705883" x2="727.9411764705883" y1="329.41470588235296" y2="1210.6382352941177"/>
<line class="line" x1="816.1764705882354" x2="816.1764705882354" y1="349.07352941176475" y2="1121.514705882353"/>
<line class="line" x1="507.3529411764706" x2="507.3529411764706" y1="305.45882352941175" y2="1294.0411764705882"/>
<line class="line" x1="375" x2="375" y1="385.6617647058824" y2="1271.2411764705882"/>
<line class="line" x1="1227.9411764705883" x2="1227.9411764705883" y1="341.3117647058824" y2="1129.2764705882355"/>
<line class="line" x1="860.2941176470589" x2="860.2941176470589" y1="327.8176470588235" y2="1142.770588235294"/>
<line class="line" x1="492.64705882352945" x2="492.64705882352945" y1="310.0852941176471" y2="1294.0411764705882"/>
<line class="line" x1="536.7647058823529" x2="536.7647058823529" y1="298.6558823529412" y2="1292.1970588235295"/>
<line class="line" x1="1448.529411764706" x2="1448.529411764706" y1="597.5382352941177" y2="873.0500000000001"/>
<line class="line" x1="360.29411764705884" x2="360.29411764705884" y1="402.36470588235295" y2="1265.2911764705884"/>
<line class="line" x1="1286.764705882353" x2="1286.764705882353" y1="376.95588235294116" y2="1093.6323529411766"/>
<line class="line" x1="1036.764705882353" x2="1036.764705882353" y1="294.1794117647059" y2="1176.4088235294118"/>
<line class="line" x1="889.7058823529412" x2="889.7058823529412" y1="316.8205882352941" y2="1153.7676470588237"/>
<line class="line" x1="977.9411764705883" x2="977.9411764705883" y1="297.1294117647059" y2="1173.4588235294118"/>
<line class="line" x1="1316.1764705882354" x2="1316.1764705882354" y1="400.0294117647059" y2="1070.558823529412"/>
<line class="line" x1="257.3529411764706" x2="257.3529411764706" y1="684.8764705882354" y2="1197.4764705882353"/>
<line class="line" x1="448.5294117647059" x2="448.5294117647059" y1="329.41470588235296" y2="1290.344117647059"/>
<line class="line" x1="801.4705882352941" x2="801.4705882352941" y1="357.564705882353" y2="1124.7058823529412"/>
<line class="line" x1="1051.4705882352941" x2="1051.4705882352941" y1="294.67058823529413" y2="1175.9176470588236"/>
<line class="line" x1="757.3529411764706" x2="757.3529411764706" y1="347.6029411764706" y2="1182.7058823529412"/>
<line class="line" x1="904.4117647058824" x2="904.4117647058824" y1="312.19705882352946" y2="1158.3911764705883"/>
<line class="line" x1="1360.294117647059" x2="1360.294117647059" y1="443.4823529411765" y2="1027.1058823529413"/>
<line class="line" x1="1404.4117647058824" x2="1404.4117647058824" y1="502.8911764705883" y2="967.6970588235295"/>
<line class="line" x1="1375" x2="1375" y1="461.05882352941177" y2="1009.529411764706"/>
<line class="line" x1="154.41176470588238" x2="154.41176470588238" y1="869.5088235294118" y2="1012.844117647059"/>
<line class="line" x1="948.529411764706" x2="948.529411764706" y1="301.59411764705885" y2="1168.994117647059"/>
<line class="line" x1="654.4117647058824" x2="654.4117647058824" y1="301.6588235294118" y2="1258.5470588235296"/>
<line class="line" x1="1007.3529411764706" x2="1007.3529411764706" y1="294.67058823529413" y2="1175.9176470588236"/>
<line class="line" x1="286.764705882353" x2="286.764705882353" y1="659.9323529411765" y2="1222.4205882352942"/>
<line class="line" x1="242.64705882352942" x2="242.64705882352942" y1="699.6470588235294" y2="1182.7058823529412"/>
<line class="line" x1="198.52941176470588" x2="198.52941176470588" y1="757.6470588235295" y2="1124.7058823529412"/>
<line class="line" x1="1419.1176470588236" x2="1419.1176470588236" y1="528.4941176470588" y2="942.094117647059"/>
<line class="line" x1="169.11764705882354" x2="169.11764705882354" y1="818.3588235294119" y2="1063.9941176470588"/>
<line class="line" x1="963.2352941176471" x2="963.2352941176471" y1="299.1088235294118" y2="1171.479411764706"/>
<line class="line" x1="227.94117647058826" x2="227.94117647058826" y1="716.3411764705883" y2="1166.0117647058826"/>
<line class="line" x1="1213.235294117647" x2="1213.235294117647" y1="334.2382352941177" y2="1136.3500000000001"/>
<line class="line" x1="1154.4117647058824" x2="1154.4117647058824" y1="312.19705882352946" y2="1158.3911764705883"/>
<circle class="circ" cx="1029.4117647058824" cy="735.2941176470589" r="441.1764705882353"/>
<line class="line" x1="1257.3529411764707" x2="1257.3529411764707" y1="357.564705882353" y2="1113.0235294117647"/>
<line class="line" x1="919.1176470588236" x2="919.1176470588236" y1="308.12647058823535" y2="1162.4617647058826"/>
<line class="line" x1="1345.5882352941178" x2="1345.5882352941178" y1="427.6117647058824" y2="1042.9764705882355"/>
</svg>